<?xml version="1.0" standalone="no"?>
<!DOCTYPE svg PUBLIC "-//W3C//DTD SVG 20010904//EN"
 "http://www.w3.org/TR/2001/REC-SVG-20010904/DTD/svg10.dtd">
<svg version="1.0" xmlns="http://www.w3.org/2000/svg"
 width="20.000000em" height="20.000000em" viewBox="0 0 200.000000 1.000000"
 preserveAspectRatio="xMidYMid meet">

<g transform="translate(0.000000,100.000000) scale(0.01,-0.01)"
fill="white" stroke="none">
<path d="M9913 18400 c-508 -35 -1002 -139 -1455 -306 -264 -97 -569 -238
-552 -254 5 -4 1049 -607 2319 -1340 1271 -733 2366 -1368 2435 -1412 275
-175 606 -424 835 -628 515 -460 1029 -1154 1315 -1777 164 -359 258 -640 365
-1091 136 -579 170 -845 170 -1352 0 -507 -34 -773 -170 -1352 -107 -451 -201
-732 -365 -1091 -237 -516 -646 -1105 -1070 -1541 -286 -294 -682 -611 -1080
-864 -69 -44 -1383 -805 -2920 -1692 -1537 -887 -2797 -1614 -2799 -1616 -3
-3 1608 -3 3580 -1 3915 3 3640 -1 4028 58 1288 195 2441 878 3251 1924 111
144 312 445 404 608 354 622 575 1318 652 2052 22 210 25 725 6 915 -55 534
-159 967 -345 1440 -132 333 -240 526 -2101 3750 -989 1713 -1826 3158 -1859
3210 -803 1264 -2094 2103 -3562 2314 -311 45 -799 66 -1082 46z"/>
<path d="M7175 17399 c-499 -379 -914 -828 -1242 -1344 -39 -60 -880 -1512
-1869 -3225 -1862 -3224 -1969 -3417 -2101 -3750 -186 -473 -290 -906 -345
-1440 -19 -190 -16 -705 6 -915 90 -864 371 -1649 844 -2361 752 -1131 1872
-1895 3189 -2174 79 -16 155 -30 170 -30 14 0 72 24 127 54 140 74 6309 3635
6426 3709 1045 662 1803 1660 2154 2838 338 1136 275 2363 -179 3464 -20 50
-74 167 -119 260 -410 847 -1049 1561 -1856 2072 -105 67 -5069 2933 -5079
2933 -3 0 -60 -41 -126 -91z"/>
</g>
</svg>
